M48
;DRILL file {KiCad (5.0.2)-1} date 4/17/2019 9:15:19 PM
;FORMAT={-:-/ absolute / inch / decimal}
FMAT,2
INCH,TZ
T1C0.0150
T2C0.0236
T3C0.0315
T4C0.0335
T5C0.0394
%
G90
G05
T1
X5.5Y-4.35
T2
X4.1963Y-4.275
X4.275Y-4.275
X5.9963Y-4.275
X6.075Y-4.275
T3
X4.75Y-4.05
X4.8484Y-4.05
X5.4Y-4.05
X5.4984Y-4.05
X5.025Y-4.075
X5.2219Y-4.075
T4
X5.0266Y-4.2424
X5.2234Y-4.2424
T5
X4.475Y-4.125
X4.475Y-4.225
X4.475Y-4.325
X5.775Y-4.125
X5.775Y-4.225
X5.775Y-4.325
X4.175Y-4.075
X4.275Y-4.075
X5.975Y-4.075
X6.075Y-4.075
T2
X4.9872Y-4.3625G85X4.9872Y-4.3349
G05
X5.2628Y-4.3349G85X5.2628Y-4.3625
G05
T0
M30
